<?xml version="1.0" encoding="utf-8"?>
<!-- Generator: Adobe Illustrator 19.1.0, SVG Export Plug-In . SVG Version: 6.00 Build 0)  -->
<svg version="1.1" id="Logo_Clipped" xmlns="http://www.w3.org/2000/svg" xmlns:xlink="http://www.w3.org/1999/xlink" x="0px"
	 y="0px" viewBox="0 0 160 160" style="enable-background:new 0 0 160 160;" xml:space="preserve">
<style type="text/css">
	.st0{clip-path:url(#SVGID_2_);fill:#81C342;}
	.st1{clip-path:url(#SVGID_2_);}
	.st2{fill:#FFFFFF;}
	.st3{clip-path:url(#SVGID_2_);fill:#FFFFFF;}
</style>
<g>
	<defs>
		<path id="SVGID_1_" d="M149.2,83.8l-65.4,65.4c-1.9,1.9-5.1,1.9-7.1,0l-66-66c-1.9-1.9-1.9-5.1,0-7.1l65.4-65.4
			c1.9-1.9,5.1-1.9,7.1,0l66,66C151.2,78.7,151.2,81.9,149.2,83.8z"/>
	</defs>
	<clipPath id="SVGID_2_">
		<use xlink:href="#SVGID_1_"  style="overflow:visible;"/>
	</clipPath>
	<path class="st0" d="M149.2,83.8l-65.4,65.4c-1.9,1.9-5.1,1.9-7.1,0l-66-66c-1.9-1.9-1.9-5.1,0-7.1l65.4-65.4
		c1.9-1.9,5.1-1.9,7.1,0l66,66C151.2,78.7,151.2,81.9,149.2,83.8z"/>
	<path class="st0" d="M149.2,83.8l-65.4,65.4c-1.9,1.9-5.1,1.9-7.1,0l-66-66c-1.9-1.9-1.9-5.1,0-7.1l65.4-65.4
		c1.9-1.9,5.1-1.9,7.1,0l66,66C151.2,78.7,151.2,81.9,149.2,83.8z"/>
	<g class="st1">
		<g>
			<path class="st2" d="M94.9,57.7c0.1-1.1,0.2-2.2,0.2-3.4c0-1-0.1-2-0.1-3l-8.8-1.6c-0.1-1-0.3-2-0.6-2.9l7.5-4.8
				c-0.7-2.1-1.5-4-2.4-5.9L82,37.8c-0.5-0.9-1.1-1.7-1.7-2.5l5.1-7.3c-1.4-1.6-2.9-3.2-4.5-4.5l-7.4,5c-0.8-0.6-1.6-1.2-2.5-1.7
				l1.9-8.7c-1.9-1-3.9-1.8-5.9-2.5l-4.9,7.5c-1-0.2-1.9-0.4-2.9-0.6l-1.6-8.8c-1.1-0.1-2.2-0.2-3.4-0.2c-1,0-2,0.1-3,0.1l-1.6,8.8
				c-1,0.1-2,0.3-2.9,0.6l-4.8-7.5c-2.1,0.7-4,1.5-5.9,2.4l1.8,8.7c-0.9,0.5-1.7,1.1-2.5,1.7l-7.3-5.1c-1.6,1.4-3.2,2.9-4.5,4.5
				l5,7.4c-0.6,0.8-1.2,1.6-1.7,2.5L18,35.7c-1,1.9-1.8,3.9-2.5,5.9l7.5,4.9c-0.2,1-0.4,1.9-0.6,2.9L13.6,51
				c-0.1,1.1-0.2,2.2-0.2,3.4c0,1,0.1,2,0.1,3l8.8,1.6c0.1,1,0.3,2,0.6,2.9l-7.5,4.8c0.7,2.1,1.5,4,2.4,5.9l8.7-1.8
				c0.5,0.9,1.1,1.7,1.7,2.5l-5.1,7.3c1.4,1.6,2.9,3.2,4.5,4.5l7.4-5c0.8,0.6,1.6,1.2,2.5,1.7l-1.9,8.7c1.9,1,3.9,1.8,5.9,2.5
				l4.9-7.5c1,0.2,1.9,0.4,2.9,0.6l1.6,8.8c1.1,0.1,2.2,0.2,3.4,0.2c1,0,2-0.1,3-0.1l1.6-8.8c1-0.1,2-0.3,2.9-0.6l4.8,7.5
				c2.1-0.7,4-1.5,5.9-2.4l-1.8-8.7c0.9-0.5,1.7-1.1,2.5-1.7l7.3,5.1c1.6-1.4,3.2-2.9,4.5-4.5l-5-7.4c0.6-0.8,1.2-1.6,1.7-2.5
				l8.7,1.9c1-1.9,1.8-3.9,2.5-5.9l-7.5-4.9c0.2-1,0.4-1.9,0.6-2.9L94.9,57.7z"/>
		</g>
	</g>
	<circle class="st0" cx="54.3" cy="54.4" r="9.1"/>
	<circle class="st3" cx="54.3" cy="54.4" r="7"/>
	<g class="st1">
		<g>
			<path class="st2" d="M122.9,117.6c0-0.7,0.1-1.3,0.1-2s0-1.3-0.1-2l-5.3-1.3c-0.3-2.4-0.9-4.6-1.8-6.7l3.9-3.7
				c-0.6-1.2-1.3-2.3-2-3.4l-5.2,1.5c-1.4-1.9-3.1-3.5-4.9-4.9l1.5-5.2c-1.1-0.7-2.2-1.4-3.4-2l-3.7,3.9c-2.1-0.9-4.4-1.5-6.7-1.8
				L94,84.8c-0.7,0-1.3-0.1-2-0.1s-1.3,0-2,0.1L88.7,90c-2.4,0.3-4.6,0.9-6.7,1.8l-3.7-3.9c-1.2,0.6-2.3,1.3-3.4,2l1.5,5.2
				c-1.9,1.4-3.5,3.1-4.9,4.9l-5.2-1.5c-0.7,1.1-1.4,2.2-2,3.4l3.9,3.7c-0.9,2.1-1.5,4.4-1.8,6.7l-5.3,1.3c0,0.7-0.1,1.3-0.1,2
				s0,1.3,0.1,2l5.3,1.3c0.3,2.4,0.9,4.6,1.8,6.7l-3.9,3.7c0.6,1.2,1.3,2.3,2,3.4l5.2-1.5c1.4,1.9,3.1,3.5,4.9,4.9l-1.5,5.2
				c1.1,0.7,2.2,1.4,3.4,2l3.7-3.9c2.1,0.9,4.4,1.5,6.7,1.8l1.3,5.3c0.7,0,1.3,0.1,2,0.1s1.3,0,2-0.1l1.3-5.3
				c2.4-0.3,4.6-0.9,6.7-1.8l3.7,3.9c1.2-0.6,2.3-1.3,3.4-2l-1.5-5.2c1.9-1.4,3.5-3.1,4.9-4.9l5.2,1.5c0.7-1.1,1.4-2.2,2-3.4
				l-3.9-3.7c0.9-2.1,1.5-4.4,1.8-6.7L122.9,117.6z"/>
		</g>
	</g>
	<circle class="st0" cx="92" cy="115.6" r="10.3"/>
	<circle class="st3" cx="92" cy="115.6" r="8"/>
</g>
</svg>
